<?xml version="1.0" encoding="utf-8"?>
<!-- Generator: Adobe Illustrator 23.1.0, SVG Export Plug-In . SVG Version: 6.00 Build 0)  -->
<svg version="1.1" id="Layer_1" xmlns="http://www.w3.org/2000/svg" xmlns:xlink="http://www.w3.org/1999/xlink" x="0px" y="0px"
	 viewBox="0 0 500 500" style="enable-background:new 0 0 500 500;" xml:space="preserve">
<style type="text/css">
	.st0{opacity:0.39;}
	.st1{fill:#FFD329;}
	.st2{opacity:9.000000e-02;fill:#FFD329;}
	.st3{fill:#F9C215;}
</style>
<g class="st0">
	<circle class="st1" cx="254.9" cy="249" r="226.8"/>
</g>
<g class="st0">
	<path class="st1" d="M189.3,404c0,22.5,3.3,44.3,9.4,64.8c17.9,4.6,36.7,7,56.1,7c125.2,0,226.8-101.5,226.8-226.8
		c0-22.5-3.3-44.3-9.4-64.8c-17.9-4.6-36.7-7-56.1-7C290.9,177.2,189.3,278.7,189.3,404z"/>
</g>
<g class="st0">
	<path class="st1" d="M422.1,278c21.9-5.2,42.3-13.5,60.8-24.2c0.3-18.5-1.7-37.4-6.2-56.2C447.6,75.8,325.3,0.6,203.5,29.8
		C181.6,35,161.2,43.3,142.6,54c-0.3,18.5,1.7,37.4,6.2,56.2C178,232,300.3,307.1,422.1,278z"/>
</g>
<circle class="st2" cx="99" cy="103" r="74"/>
<g class="st0">
	<circle class="st3" cx="377" cy="413" r="74"/>
</g>
</svg>
