<svg xmlns="http://www.w3.org/2000/svg" width="645" height="447" viewBox="0 0 645 447">
  <g id="Group_4" data-name="Group 4" transform="translate(-1074 -414)">
    <g id="Rectangle_17" data-name="Rectangle 17" transform="translate(1125 414)" fill="#f8f7f7" stroke="#707070" stroke-width="1" opacity="0.107">
      <rect width="494" height="149" stroke="none"/>
      <rect x="0.5" y="0.5" width="493" height="148" fill="none"/>
    </g>
    <g id="Rectangle_18" data-name="Rectangle 18" transform="translate(1196 608)" fill="#f8f7f7" stroke="#707070" stroke-width="1" opacity="0.107">
      <rect width="494" height="149" stroke="none"/>
      <rect x="0.5" y="0.5" width="493" height="148" fill="none"/>
    </g>
    <g id="Group_2" data-name="Group 2" transform="translate(-57 -464)">
      <circle id="Ellipse_9" data-name="Ellipse 9" cx="10" cy="10" r="10" transform="translate(1131 928)" fill="#7c8ef2"/>
      <circle id="Ellipse_25" data-name="Ellipse 25" cx="10" cy="10" r="10" transform="translate(1259 928)" fill="#7c8ef2"/>
      <circle id="Ellipse_13" data-name="Ellipse 13" cx="10" cy="10" r="10" transform="translate(1163 928)" fill="#7c8ef2"/>
      <circle id="Ellipse_26" data-name="Ellipse 26" cx="10" cy="10" r="10" transform="translate(1291 928)" fill="#7c8ef2"/>
      <circle id="Ellipse_17" data-name="Ellipse 17" cx="10" cy="10" r="10" transform="translate(1195 928)" fill="#7c8ef2"/>
      <circle id="Ellipse_29" data-name="Ellipse 29" cx="10" cy="10" r="10" transform="translate(1323 928)" fill="#7c8ef2"/>
      <circle id="Ellipse_21" data-name="Ellipse 21" cx="10" cy="10" r="10" transform="translate(1227 928)" fill="#7c8ef2"/>
      <circle id="Ellipse_31" data-name="Ellipse 31" cx="10" cy="10" r="10" transform="translate(1355 928)" fill="#7c8ef2"/>
      <circle id="Ellipse_10" data-name="Ellipse 10" cx="10" cy="10" r="10" transform="translate(1131 965)" fill="#7c8ef2"/>
      <circle id="Ellipse_27" data-name="Ellipse 27" cx="10" cy="10" r="10" transform="translate(1259 965)" fill="#7c8ef2"/>
      <circle id="Ellipse_14" data-name="Ellipse 14" cx="10" cy="10" r="10" transform="translate(1163 965)" fill="#7c8ef2"/>
      <circle id="Ellipse_28" data-name="Ellipse 28" cx="10" cy="10" r="10" transform="translate(1291 965)" fill="#7c8ef2"/>
      <circle id="Ellipse_18" data-name="Ellipse 18" cx="10" cy="10" r="10" transform="translate(1195 965)" fill="#7c8ef2"/>
      <circle id="Ellipse_30" data-name="Ellipse 30" cx="10" cy="10" r="10" transform="translate(1323 965)" fill="#7c8ef2"/>
      <circle id="Ellipse_22" data-name="Ellipse 22" cx="10" cy="10" r="10" transform="translate(1227 965)" fill="#7c8ef2"/>
      <circle id="Ellipse_32" data-name="Ellipse 32" cx="10" cy="10" r="10" transform="translate(1355 965)" fill="#7c8ef2"/>
      <circle id="Ellipse_11" data-name="Ellipse 11" cx="10" cy="10" r="10" transform="translate(1131 1002)" fill="#7c8ef2"/>
      <circle id="Ellipse_33" data-name="Ellipse 33" cx="10" cy="10" r="10" transform="translate(1259 1002)" fill="#7c8ef2"/>
      <circle id="Ellipse_15" data-name="Ellipse 15" cx="10" cy="10" r="10" transform="translate(1163 1002)" fill="#7c8ef2"/>
      <circle id="Ellipse_34" data-name="Ellipse 34" cx="10" cy="10" r="10" transform="translate(1291 1002)" fill="#7c8ef2"/>
      <circle id="Ellipse_19" data-name="Ellipse 19" cx="10" cy="10" r="10" transform="translate(1195 1002)" fill="#7c8ef2"/>
      <circle id="Ellipse_35" data-name="Ellipse 35" cx="10" cy="10" r="10" transform="translate(1323 1002)" fill="#7c8ef2"/>
      <circle id="Ellipse_23" data-name="Ellipse 23" cx="10" cy="10" r="10" transform="translate(1227 1002)" fill="#7c8ef2"/>
      <circle id="Ellipse_36" data-name="Ellipse 36" cx="10" cy="10" r="10" transform="translate(1355 1002)" fill="#7c8ef2"/>
      <circle id="Ellipse_12" data-name="Ellipse 12" cx="10" cy="10" r="10" transform="translate(1131 1039)" fill="#7c8ef2"/>
      <circle id="Ellipse_37" data-name="Ellipse 37" cx="10" cy="10" r="10" transform="translate(1259 1039)" fill="#7c8ef2"/>
      <circle id="Ellipse_16" data-name="Ellipse 16" cx="10" cy="10" r="10" transform="translate(1163 1039)" fill="#7c8ef2"/>
      <circle id="Ellipse_38" data-name="Ellipse 38" cx="10" cy="10" r="10" transform="translate(1291 1039)" fill="#7c8ef2"/>
      <circle id="Ellipse_20" data-name="Ellipse 20" cx="10" cy="10" r="10" transform="translate(1195 1039)" fill="#7c8ef2"/>
      <circle id="Ellipse_39" data-name="Ellipse 39" cx="10" cy="10" r="10" transform="translate(1323 1039)" fill="#7c8ef2"/>
      <circle id="Ellipse_24" data-name="Ellipse 24" cx="10" cy="10" r="10" transform="translate(1227 1039)" fill="#7c8ef2"/>
      <circle id="Ellipse_40" data-name="Ellipse 40" cx="10" cy="10" r="10" transform="translate(1355 1039)" fill="#7c8ef2"/>
    </g>
    <g id="Group_3" data-name="Group 3" transform="translate(344 -198)">
      <circle id="Ellipse_9-2" data-name="Ellipse 9" cx="10" cy="10" r="10" transform="translate(1131 928)" fill="#7c8ef2"/>
      <circle id="Ellipse_25-2" data-name="Ellipse 25" cx="10" cy="10" r="10" transform="translate(1259 928)" fill="#7c8ef2"/>
      <circle id="Ellipse_13-2" data-name="Ellipse 13" cx="10" cy="10" r="10" transform="translate(1163 928)" fill="#7c8ef2"/>
      <circle id="Ellipse_26-2" data-name="Ellipse 26" cx="10" cy="10" r="10" transform="translate(1291 928)" fill="#7c8ef2"/>
      <circle id="Ellipse_17-2" data-name="Ellipse 17" cx="10" cy="10" r="10" transform="translate(1195 928)" fill="#7c8ef2"/>
      <circle id="Ellipse_29-2" data-name="Ellipse 29" cx="10" cy="10" r="10" transform="translate(1323 928)" fill="#7c8ef2"/>
      <circle id="Ellipse_21-2" data-name="Ellipse 21" cx="10" cy="10" r="10" transform="translate(1227 928)" fill="#7c8ef2"/>
      <circle id="Ellipse_31-2" data-name="Ellipse 31" cx="10" cy="10" r="10" transform="translate(1355 928)" fill="#7c8ef2"/>
      <circle id="Ellipse_10-2" data-name="Ellipse 10" cx="10" cy="10" r="10" transform="translate(1131 965)" fill="#7c8ef2"/>
      <circle id="Ellipse_27-2" data-name="Ellipse 27" cx="10" cy="10" r="10" transform="translate(1259 965)" fill="#7c8ef2"/>
      <circle id="Ellipse_14-2" data-name="Ellipse 14" cx="10" cy="10" r="10" transform="translate(1163 965)" fill="#7c8ef2"/>
      <circle id="Ellipse_28-2" data-name="Ellipse 28" cx="10" cy="10" r="10" transform="translate(1291 965)" fill="#7c8ef2"/>
      <circle id="Ellipse_18-2" data-name="Ellipse 18" cx="10" cy="10" r="10" transform="translate(1195 965)" fill="#7c8ef2"/>
      <circle id="Ellipse_30-2" data-name="Ellipse 30" cx="10" cy="10" r="10" transform="translate(1323 965)" fill="#7c8ef2"/>
      <circle id="Ellipse_22-2" data-name="Ellipse 22" cx="10" cy="10" r="10" transform="translate(1227 965)" fill="#7c8ef2"/>
      <circle id="Ellipse_32-2" data-name="Ellipse 32" cx="10" cy="10" r="10" transform="translate(1355 965)" fill="#7c8ef2"/>
      <circle id="Ellipse_11-2" data-name="Ellipse 11" cx="10" cy="10" r="10" transform="translate(1131 1002)" fill="#7c8ef2"/>
      <circle id="Ellipse_33-2" data-name="Ellipse 33" cx="10" cy="10" r="10" transform="translate(1259 1002)" fill="#7c8ef2"/>
      <circle id="Ellipse_15-2" data-name="Ellipse 15" cx="10" cy="10" r="10" transform="translate(1163 1002)" fill="#7c8ef2"/>
      <circle id="Ellipse_34-2" data-name="Ellipse 34" cx="10" cy="10" r="10" transform="translate(1291 1002)" fill="#7c8ef2"/>
      <circle id="Ellipse_19-2" data-name="Ellipse 19" cx="10" cy="10" r="10" transform="translate(1195 1002)" fill="#7c8ef2"/>
      <circle id="Ellipse_35-2" data-name="Ellipse 35" cx="10" cy="10" r="10" transform="translate(1323 1002)" fill="#7c8ef2"/>
      <circle id="Ellipse_23-2" data-name="Ellipse 23" cx="10" cy="10" r="10" transform="translate(1227 1002)" fill="#7c8ef2"/>
      <circle id="Ellipse_36-2" data-name="Ellipse 36" cx="10" cy="10" r="10" transform="translate(1355 1002)" fill="#7c8ef2"/>
      <circle id="Ellipse_12-2" data-name="Ellipse 12" cx="10" cy="10" r="10" transform="translate(1131 1039)" fill="#7c8ef2"/>
      <circle id="Ellipse_37-2" data-name="Ellipse 37" cx="10" cy="10" r="10" transform="translate(1259 1039)" fill="#7c8ef2"/>
      <circle id="Ellipse_16-2" data-name="Ellipse 16" cx="10" cy="10" r="10" transform="translate(1163 1039)" fill="#7c8ef2"/>
      <circle id="Ellipse_38-2" data-name="Ellipse 38" cx="10" cy="10" r="10" transform="translate(1291 1039)" fill="#7c8ef2"/>
      <circle id="Ellipse_20-2" data-name="Ellipse 20" cx="10" cy="10" r="10" transform="translate(1195 1039)" fill="#7c8ef2"/>
      <circle id="Ellipse_39-2" data-name="Ellipse 39" cx="10" cy="10" r="10" transform="translate(1323 1039)" fill="#7c8ef2"/>
      <circle id="Ellipse_24-2" data-name="Ellipse 24" cx="10" cy="10" r="10" transform="translate(1227 1039)" fill="#7c8ef2"/>
      <circle id="Ellipse_40-2" data-name="Ellipse 40" cx="10" cy="10" r="10" transform="translate(1355 1039)" fill="#7c8ef2"/>
    </g>
  </g>
</svg>
