<?xml version="1.0" encoding="utf-8"?>
<!-- Generator: Adobe Illustrator 23.1.0, SVG Export Plug-In . SVG Version: 6.00 Build 0)  -->
<svg version="1.1" xmlns="http://www.w3.org/2000/svg" xmlns:xlink="http://www.w3.org/1999/xlink" x="0px" y="0px"
	 viewBox="0 0 200 200" style="enable-background:new 0 0 200 200;" xml:space="preserve">
<style type="text/css">
	.st0{opacity:0.51;}
	.st1{fill:url(#SVGID_1_);}
	.st2{opacity:0.14;fill:#F4F4F4;}
	.st3{opacity:7.000000e-02;fill:#F4F4F4;}
	.st4{opacity:0.29;}
	.st5{fill:url(#SVGID_2_);}
	.st6{opacity:0.16;fill:#F4F4F4;}
	.st7{opacity:0.13;fill:#F4F4F4;}
</style>
<g id="Layer_1">
	<g class="st0">
		<linearGradient id="SVGID_1_" gradientUnits="userSpaceOnUse" x1="35.5365" y1="91.641" x2="148.1846" y2="134.254">
			<stop  offset="0" style="stop-color:#9495FF"/>
			<stop  offset="1" style="stop-color:#BC157C"/>
		</linearGradient>
		<circle class="st1" cx="88.2" cy="111.6" r="60.2"/>
	</g>
</g>
<g id="Layer_2">
	<path class="st2" d="M55.5,142.2H41.2c-6.6,0-12-5.4-12-12v-14.3c0-6.6,5.4-12,12-12h14.3c6.6,0,12,5.4,12,12v14.3
		C67.5,136.8,62.1,142.2,55.5,142.2z"/>
	<path class="st3" d="M80,171.4H62.6c-6.6,0-12-5.4-12-12V142c0-6.6,5.4-12,12-12H80c6.6,0,12,5.4,12,12v17.4
		C92,166,86.6,171.4,80,171.4z"/>
</g>
<g id="Layer_3">
	<g class="st4">
		<linearGradient id="SVGID_2_" gradientUnits="userSpaceOnUse" x1="82.8346" y1="66.3158" x2="181" y2="66.3158">
			<stop  offset="0" style="stop-color:#AB89FF"/>
			<stop  offset="1" style="stop-color:#BC157C"/>
		</linearGradient>
		<circle class="st5" cx="131.9" cy="66.3" r="49.1"/>
	</g>
	<circle class="st6" cx="106.2" cy="35.3" r="15"/>
	<circle class="st7" cx="117.3" cy="26.4" r="7.7"/>
</g>
</svg>
