<svg xmlns="http://www.w3.org/2000/svg" xmlns:xlink="http://www.w3.org/1999/xlink" width="768.016" height="677.598" viewBox="0 0 768.016 677.598">
  <defs>
    <linearGradient id="linear-gradient" x1="0.5" x2="0.5" y2="1" gradientUnits="objectBoundingBox">
      <stop offset="0" stop-color="#f73737"/>
      <stop offset="0.552" stop-color="#9e43a5"/>
      <stop offset="1" stop-color="#5f4cf2"/>
    </linearGradient>
  </defs>
  <g id="Group_1" data-name="Group 1" transform="translate(-1048.791 -242.194)">
    <g id="Intersection_5" data-name="Intersection 5" transform="matrix(0.899, 0.438, -0.438, 0.899, 1205.057, 411.256)" fill="none" opacity="0.232">
      <path d="M27.476,253.241,8.771,214.889A215.364,215.364,0,0,1,0,184.536L378.355,0a216.977,216.977,0,0,1-52.84,324.593l-37.427,18.254A217.206,217.206,0,0,1,27.476,253.241Z" stroke="none"/>
      <path d="M 212.2568969726562 349.4706115722656 C 237.5114593505859 349.4706115722656 262.2015075683594 345.0357360839844 285.0199584960938 336.555908203125 L 321.8555908203125 318.6261596679688 C 384.6793823242188 280.0959777832031 422.1861267089844 213.1483459472656 422.1861267089844 139.5412292480469 C 422.1861267089844 92.00180053710938 405.9818115234375 45.76357269287109 376.4476928710938 8.718536376953125 L 8.042157173156738 188.4019165039062 C 9.979635238647461 196.5355529785156 12.38485717773438 204.5107574462891 15.06226634979248 211.8202209472656 L 33.43439102172852 249.5667266845703 C 72.01195526123047 312.1233520507812 138.8615112304688 349.4706115722656 212.2568969726562 349.4706115722656 M 212.2568969726562 356.4706115722656 C 134.1454467773438 356.4706115722656 65.67282867431641 315.1798400878906 27.47626686096191 253.2410430908203 L 8.770703315734863 214.8887939453125 C 5.140265941619873 205.0876007080078 2.196078538894653 194.9462890625 1.611328116268851e-05 184.5361022949219 L 378.3551330566406 -2.197265712311491e-05 C 410.0735778808594 37.71872711181641 429.1861267089844 86.40216827392578 429.1861267089844 139.5412292480469 C 429.1861267089844 217.8427886962891 387.70556640625 286.45166015625 325.5152587890625 324.5932922363281 L 288.0885009765625 342.8474731445312 C 264.4837036132812 351.6556091308594 238.9326477050781 356.4706115722656 212.2568969726562 356.4706115722656 Z" stroke="none" fill="#f56b6b"/>
    </g>
    <path id="Intersection_2" data-name="Intersection 2" d="M27.476,253.241,8.771,214.889A215.364,215.364,0,0,1,0,184.536L378.355,0a216.977,216.977,0,0,1-52.84,324.593l-37.427,18.254A217.206,217.206,0,0,1,27.476,253.241Z" transform="matrix(0.899, 0.438, -0.438, 0.899, 1399.067, 410.979)" opacity="0.638" fill="url(#linear-gradient)"/>
    <path id="Intersection_3" data-name="Intersection 3" d="M27.476,253.241,8.771,214.889A215.364,215.364,0,0,1,0,184.536L378.355,0a216.977,216.977,0,0,1-52.84,324.593l-37.427,18.254A217.206,217.206,0,0,1,27.476,253.241Z" transform="matrix(-0.899, -0.438, 0.438, -0.899, 1468.462, 750.731)" opacity="0.638" fill="url(#linear-gradient)"/>
    <g id="Intersection_4" data-name="Intersection 4" transform="matrix(-0.899, -0.438, 0.438, -0.899, 1660.541, 750.793)" fill="none" opacity="0.232">
      <path d="M27.476,253.241,8.771,214.889A215.364,215.364,0,0,1,0,184.536L378.355,0a216.977,216.977,0,0,1-52.84,324.593l-37.427,18.254A217.206,217.206,0,0,1,27.476,253.241Z" stroke="none"/>
      <path d="M 212.2568969726562 349.4706115722656 C 237.5114593505859 349.4706115722656 262.2015075683594 345.0357360839844 285.0199584960938 336.555908203125 L 321.8555908203125 318.6261596679688 C 384.6793823242188 280.0959777832031 422.1861267089844 213.1483459472656 422.1861267089844 139.5412292480469 C 422.1861267089844 92.00180053710938 405.9818115234375 45.76357269287109 376.4476928710938 8.718536376953125 L 8.042157173156738 188.4019165039062 C 9.979635238647461 196.5355529785156 12.38485717773438 204.5107574462891 15.06226634979248 211.8202209472656 L 33.43439102172852 249.5667266845703 C 72.01195526123047 312.1233520507812 138.8615112304688 349.4706115722656 212.2568969726562 349.4706115722656 M 212.2568969726562 356.4706115722656 C 134.1454467773438 356.4706115722656 65.67282867431641 315.1798400878906 27.47626686096191 253.2410430908203 L 8.770703315734863 214.8887939453125 C 5.140265941619873 205.0876007080078 2.196078538894653 194.9462890625 1.611328116268851e-05 184.5361022949219 L 378.3551330566406 -2.197265712311491e-05 C 410.0735778808594 37.71872711181641 429.1861267089844 86.40216827392578 429.1861267089844 139.5412292480469 C 429.1861267089844 217.8427886962891 387.70556640625 286.45166015625 325.5152587890625 324.5932922363281 L 288.0885009765625 342.8474731445312 C 264.4837036132812 351.6556091308594 238.9326477050781 356.4706115722656 212.2568969726562 356.4706115722656 Z" stroke="none" fill="#f56b6b"/>
    </g>
  </g>
</svg>
